<?xml version="1.0" encoding="UTF-8"?>
<!DOCTYPE svg PUBLIC "-//W3C//DTD SVG 1.1//EN" "http://www.w3.org/Graphics/SVG/1.1/DTD/svg11.dtd">
<svg xmlns="http://www.w3.org/2000/svg" version="1.1" width="850px" height="290px" style="shape-rendering:geometricPrecision; text-rendering:geometricPrecision; image-rendering:optimizeQuality; fill-rule:evenodd; clip-rule:evenodd" xmlns:xlink="http://www.w3.org/1999/xlink">
<g><path style="opacity:0.999" fill="#f78b29" d="M 159.5,289.5 C 149.833,289.5 140.167,289.5 130.5,289.5C 76.1296,280.649 36.9629,251.316 13,201.5C -6.55838,148.749 0.108292,99.749 33,54.5C 76.4953,5.24421 129.995,-10.2558 193.5,8C 208.851,12.8375 222.517,20.5042 234.5,31C 236.695,32.373 239.029,32.7063 241.5,32C 246.5,27 251.5,22 256.5,17C 261.623,15.4563 264.789,17.2897 266,22.5C 268.413,40.128 270.079,57.7947 271,75.5C 269.137,77.949 266.637,78.949 263.5,78.5C 246.678,76.4186 230.011,73.5852 213.5,70C 210.793,68.1363 209.959,65.6363 211,62.5C 215,58.5 219,54.5 223,50.5C 223.667,48.8333 223.667,47.1667 223,45.5C 176.219,13.3356 128.052,11.1689 78.5,39C 41.7694,64.1121 22.7694,99.1121 21.5,144C 22.0617,181.444 35.7283,213.111 62.5,239C 108.577,274.608 157.577,279.275 209.5,253C 228.432,241.402 243.265,225.902 254,206.5C 259.398,199.441 265.398,198.774 272,204.5C 273.483,207.702 273.817,211.036 273,214.5C 258.544,236.623 240.377,255.123 218.5,270C 199.927,280.247 180.261,286.747 159.5,289.5 Z"/></g>
<g><path style="opacity:1" fill="#0a7cb3" d="M 157.5,51.5 C 174.59,51.5446 186.59,59.3779 193.5,75C 215.079,80.4784 223.412,94.1451 218.5,116C 221.957,120.13 225.457,124.297 229,128.5C 235.306,141.747 234.972,154.747 228,167.5C 225.629,170.206 222.963,172.539 220,174.5C 225.823,198.032 216.99,212.532 193.5,218C 189.5,226 183.5,232 175.5,236C 168.916,237.141 162.583,236.474 156.5,234C 152.618,230.736 150.451,226.57 150,221.5C 150.106,166.503 150.439,111.503 151,56.5C 152.805,54.1743 154.972,52.5077 157.5,51.5 Z M 177.5,80.5 C 181.745,81.0065 183.579,83.3398 183,87.5C 180.785,92.0997 177.952,96.2664 174.5,100C 168.141,103.225 165.308,101.392 166,94.5C 169.146,89.1711 172.979,84.5044 177.5,80.5 Z M 192.5,106.5 C 196.385,106.886 198.385,109.053 198.5,113C 194.294,129.257 183.96,136.257 167.5,134C 165.022,132.062 164.855,129.895 167,127.5C 172.343,125.866 177.51,123.699 182.5,121C 186.661,116.552 189.994,111.719 192.5,106.5 Z M 191.5,146.5 C 196.675,146.272 201.675,147.105 206.5,149C 209.016,151.854 208.683,154.521 205.5,157C 196.571,154.532 189.404,157.032 184,164.5C 180.505,173.107 182.505,180.107 190,185.5C 192.73,189.912 191.73,192.912 187,194.5C 179.02,191.585 174.02,185.919 172,177.5C 170.46,161.879 176.96,151.546 191.5,146.5 Z"/></g>
<g><path style="opacity:0.997" fill="#f78b29" d="M 399.5,56.5 C 403.182,56.3347 406.848,56.5014 410.5,57C 422.981,65.5096 423.648,74.843 412.5,85C 397.023,88.5098 389.856,82.3431 391,66.5C 392.978,62.3619 395.811,59.0286 399.5,56.5 Z"/></g>
<g><path style="opacity:0.999" fill="#f78b29" d="M 369.5,132.5 C 368.503,154.66 368.169,176.994 368.5,199.5C 360.889,200.076 353.556,199.41 346.5,197.5C 346.663,195.143 346.497,192.81 346,190.5C 345.586,190.043 345.086,189.709 344.5,189.5C 337.249,199.792 327.249,204.792 314.5,204.5C 300.862,204.581 290.029,199.248 282,188.5C 274.565,169.466 280.065,155.633 298.5,147C 302.723,145.528 307.057,144.528 311.5,144C 322.646,143.324 333.646,142.991 344.5,143C 346.941,123.449 338.274,115.449 318.5,119C 316.5,120 314.5,121 312.5,122C 310.457,125.253 308.29,128.42 306,131.5C 298.944,130.146 291.777,129.48 284.5,129.5C 286.298,115.853 293.632,106.353 306.5,101C 318.75,98.087 331.084,97.7537 343.5,100C 358.993,105.33 367.659,116.164 369.5,132.5 Z M 315.5,158.5 C 325.172,158.334 334.839,158.5 344.5,159C 347.549,176.717 340.049,185.884 322,186.5C 307.511,185.504 302.511,178.17 307,164.5C 309.322,161.605 312.155,159.605 315.5,158.5 Z"/></g>
<g><path style="opacity:0.999" fill="#f78b29" d="M 468.5,98.5 C 478.632,97.9581 488.632,98.7914 498.5,101C 509.222,105.553 516.222,113.386 519.5,124.5C 519.392,125.442 519.059,126.275 518.5,127C 511.483,127.602 504.483,127.935 497.5,128C 491.871,118.364 483.538,115.031 472.5,118C 463.488,119.862 460.654,125.028 464,133.5C 465.214,135.049 466.714,136.215 468.5,137C 477.733,139.713 487.066,142.047 496.5,144C 518.215,149.597 525.715,163.097 519,184.5C 511.47,197.022 500.303,203.522 485.5,204C 470.937,206.069 457.604,203.069 445.5,195C 438.744,189.317 434.744,182.15 433.5,173.5C 441.168,172.944 448.834,172.777 456.5,173C 460.985,182.078 468.318,186.245 478.5,185.5C 486.407,186.298 492.24,183.298 496,176.5C 497.098,172.495 496.265,168.995 493.5,166C 479.651,161.496 465.651,157.496 451.5,154C 438.711,147.251 433.878,136.751 437,122.5C 439.963,113.869 445.463,107.369 453.5,103C 458.535,101.151 463.535,99.6506 468.5,98.5 Z"/></g>
<g><path style="opacity:1" fill="#f78b29" d="M 669.5,139.5 C 668.499,158.12 668.166,178.12 668.5,199.5C 660.833,199.5 653.167,199.5 645.5,199.5C 645.349,181.146 645.682,163.313 646.5,146C 645.934,145.005 645.267,144.172 644.5,143.5C 644.176,129.255 644.51,115.088 645.5,101C 653.167,100.333 660.833,100.333 668.5,101C 669.795,103.801 669.795,106.634 668.5,109.5C 668.887,110.72 669.72,111.387 671,111.5C 683.823,98.4651 698.99,94.9651 716.5,101C 727.309,107.444 733.476,116.944 735,129.5C 735.667,153.167 735.667,176.833 735,200.5C 726.919,201.482 718.752,201.816 710.5,201.5C 710.667,180.164 710.5,158.831 710,137.5C 708.577,123.87 701.077,118.037 687.5,120C 682.688,120.989 678.521,123.156 675,126.5C 672.549,130.717 670.715,135.05 669.5,139.5 Z"/></g>
<g><path style="opacity:0.999" fill="#f78b29" d="M 849.5,168.5 C 849.5,169.5 849.5,170.5 849.5,171.5C 838.189,197.994 818.189,208.494 789.5,203C 765.349,194.885 752.682,178.052 751.5,152.5C 751.4,129.515 761.4,112.681 781.5,102C 806.956,93.067 827.789,99.2337 844,120.5C 846.602,124.474 848.102,128.807 848.5,133.5C 840.16,133.666 831.827,133.5 823.5,133C 817.281,121.893 807.947,117.893 795.5,121C 786.137,124.161 780.303,130.661 778,140.5C 775.44,152.139 777.107,163.139 783,173.5C 792.965,183.559 804.132,185.059 816.5,178C 819.598,175.572 821.931,172.572 823.5,169C 832.16,168.5 840.827,168.334 849.5,168.5 Z"/></g>
<g><path style="opacity:0.667" fill="#f87708" d="M 554.5,101.5 C 545.651,101.174 536.984,101.507 528.5,102.5C 527.957,102.44 527.624,102.107 527.5,101.5C 536.658,100.178 545.658,100.178 554.5,101.5 Z"/></g>
<g><path style="opacity:1" fill="#f78a28" d="M 417.5,101.5 C 418.833,134.5 418.833,167.5 417.5,200.5C 417.666,191.161 417.5,181.827 417,172.5C 416.5,181.494 416.334,190.494 416.5,199.5C 408.833,199.5 401.167,199.5 393.5,199.5C 393.5,167.167 393.5,134.833 393.5,102.5C 401.167,102.5 408.833,102.5 416.5,102.5C 416.333,125.502 416.5,148.502 417,171.5C 417.5,148.169 417.667,124.836 417.5,101.5 Z"/></g>
<g><path style="opacity:0.999" fill="#f78b29" d="M 528.5,102.5 C 536.984,101.507 545.651,101.174 554.5,101.5C 563.129,124.882 571.295,148.548 579,172.5C 580,173.833 581,173.833 582,172.5C 589.514,148.774 597.181,125.108 605,101.5C 613.421,100.351 621.921,100.184 630.5,101C 630.957,101.414 631.291,101.914 631.5,102.5C 617.667,138.833 603.833,175.167 590,211.5C 586.199,222.273 580.032,231.439 571.5,239C 560.677,243.771 549.343,245.437 537.5,244C 536.524,237.924 536.19,231.758 536.5,225.5C 553.177,227.673 563.51,220.673 567.5,204.5C 553.925,170.689 540.925,136.689 528.5,102.5 Z"/></g>
<g><path style="opacity:1" fill="#0b7db3" d="M 122.5,49.5 C 127.179,49.3342 131.845,49.5008 136.5,50C 137.931,50.4652 139.097,51.2986 140,52.5C 139.912,109.498 139.579,166.498 139,223.5C 135.321,232.347 128.654,237.013 119,237.5C 106.103,235.938 97.2696,229.105 92.5,217C 76.8044,214.638 67.8044,205.638 65.5,190C 66.5105,184.773 67.3439,179.606 68,174.5C 52.3853,162.428 48.7187,147.428 57,129.5C 60.2981,125.2 63.9648,121.2 68,117.5C 64.0666,102.568 67.8999,90.0683 79.5,80C 82.674,78.2752 86.0073,76.9419 89.5,76C 95.6792,60.9713 106.679,52.138 122.5,49.5 Z M 122.5,57.5 C 125.448,57.2229 128.281,57.5562 131,58.5C 131.667,88.5 131.667,118.5 131,148.5C 128.353,149.464 125.853,148.964 123.5,147C 114.067,145.121 105.4,146.788 97.5,152C 93.1321,156.033 89.1321,160.366 85.5,165C 73.6107,169.639 65.7774,165.806 62,153.5C 60.4635,145.3 61.7968,137.634 66,130.5C 68.1122,127.716 70.7788,125.716 74,124.5C 84.1979,131.049 95.0312,132.215 106.5,128C 110.077,126.148 111.077,123.482 109.5,120C 105.262,119.177 101.262,119.844 97.5,122C 79.2477,123.037 72.081,114.537 76,96.5C 82.7582,84.766 92.2582,81.9327 104.5,88C 106.926,91.5159 109.593,94.8492 112.5,98C 115.588,98.5879 117.255,97.2545 117.5,94C 117.091,91.6793 116.257,89.5126 115,87.5C 110.377,82.4668 105.21,78.3001 99.5,75C 100.739,71.1855 102.739,67.8522 105.5,65C 110.872,61.6071 116.538,59.1071 122.5,57.5 Z M 110.5,154.5 C 119.718,153.193 126.551,156.526 131,164.5C 131.667,183.5 131.667,202.5 131,221.5C 128.482,226.522 124.315,229.188 118.5,229.5C 102.242,225.982 97.4084,216.649 104,201.5C 107.158,198.92 110.492,196.587 114,194.5C 114.711,192.633 114.211,191.133 112.5,190C 108.947,189.402 105.614,190.069 102.5,192C 97.4425,196.867 93.4425,202.367 90.5,208.5C 76.825,204.807 71.6584,196.141 75,182.5C 75.972,180.695 77.1387,179.028 78.5,177.5C 88.0944,173.74 95.7611,167.573 101.5,159C 104.592,157.454 107.592,155.954 110.5,154.5 Z"/></g>
<g><path style="opacity:0.667" fill="#f88d2e" d="M 417.5,101.5 C 417.667,124.836 417.5,148.169 417,171.5C 416.5,148.502 416.333,125.502 416.5,102.5C 408.833,102.5 401.167,102.5 393.5,102.5C 393.5,134.833 393.5,167.167 393.5,199.5C 401.167,199.5 408.833,199.5 416.5,199.5C 416.334,190.494 416.5,181.494 417,172.5C 417.5,181.827 417.666,191.161 417.5,200.5C 409.35,201.493 401.017,201.826 392.5,201.5C 392.5,167.833 392.5,134.167 392.5,100.5C 401.017,100.174 409.35,100.507 417.5,101.5 Z"/></g>
<g><path style="opacity:0.667" fill="#f88e2f" d="M 369.5,132.5 C 369.5,155.5 369.5,178.5 369.5,201.5C 362.159,201.666 354.826,201.5 347.5,201C 346.663,199.989 346.33,198.822 346.5,197.5C 353.556,199.41 360.889,200.076 368.5,199.5C 368.169,176.994 368.503,154.66 369.5,132.5 Z"/></g>
<g><path style="opacity:1" fill="#f78c2d" d="M 669.5,139.5 C 669.827,160.076 669.493,180.576 668.5,201C 660.587,201.814 652.754,201.647 645,200.5C 644.5,181.503 644.333,162.503 644.5,143.5C 645.267,144.172 645.934,145.005 646.5,146C 645.682,163.313 645.349,181.146 645.5,199.5C 653.167,199.5 660.833,199.5 668.5,199.5C 668.166,178.12 668.499,158.12 669.5,139.5 Z"/></g>
</svg>
